<svg width="145" height="30" viewBox="0 0 145 30" fill="none" xmlns="http://www.w3.org/2000/svg">
<path d="M9.6 30C7.6 30 5.8 29.6 4.1 28.9C2.4 28.1 1.1 27.1 0 25.7L3.8 21.1C5.4 23.3 7.2 24.3 9.3 24.3C12.1 24.3 13.5 22.7 13.5 19.4V5.4H3.1V0H20.2V19.1C20.2 22.7 19.3 25.4 17.5 27.3C15.7 29.1 13.1 30 9.6 30Z" fill="#181818"/>
<path d="M45.8 23.2L38.9 6.7L32 23.2L29.4 29.5H22.4L35.6 0H42.3L55.5 29.5H48.3L45.8 23.2Z" fill="#181818"/>
<path d="M62.5 21.7L66.2 13.3L65 10.5L60.5 0H53.1L59.5 14.7L62.5 21.7Z" fill="#181818"/>
<path d="M78.6 0L65.9 29.5H72.6L85.4 0H78.6Z" fill="#181818"/>
<path d="M106.3 23.2L99.4 6.7L92.5 23.2L90 29.5H83L96.1 0H102.8L116 29.5H108.8L106.3 23.2Z" fill="#181818"/>
<path d="M143.3 0H135.9L125.1 14.5L114.2 29.5H122L133 14.2L143.3 0Z" fill="#181818"/>
<path d="M121.6 9.6L125.7 4.6L122.5 0H114.8L119.9 7.2L121.6 9.6Z" fill="#181818"/>
<path d="M136.8 19.1001L132.5 24.2001L136.2 29.5001H144L136.8 19.1001Z" fill="#181818"/>
</svg>
